# xmcd
#
# Track frame offsets: 
#        150
#        12522
#        22488
#        35575
#        49174
#        63031
#        75559
#        87350
#        99817
#        114370
#        127554
#        140733
#        153336
#        164364
#        180882
#        194181
#        212131
#        225916
#        241326
#        251599
#        269929
#        286637
#        297368
#        310353
#        323063
#
# Disc length: 4534 seconds
#
# Revision: 0
# Processed by: cddbd v1.5.2PL0 Copyright (c) Steve Scherf et al.
# Submitted via: ExactAudioCopyFreeDBPlugin 1.0
#
DISCID=5d11b419
DTITLE=John Lee Hooker - Boom Boom 101 The Best Of  CD 3, 2013
DYEAR=1900
DGENRE=Blues
TTITLE0=I'm In The Mood
TTITLE1=Dimples
TTITLE2=Mambo Chillun
TTITLE3=Baby Lee
TTITLE4=The Road Is So Rough
TTITLE5=Trouble Blues
TTITLE6=Little Wheel
TTITLE7=Crawlin' Black Spider
TTITLE8=I'm So Worried Baby
TTITLE9=I'm So Excited
TTITLE10=I See You When You're Weak
TTITLE11=Rosie Mae
TTITLE12=Little Fine Woman
TTITLE13=Trying To Find A Woman
TTITLE14=Drive Me Away
TTITLE15=I'm Goin' Home
TTITLE16=Water Boy
TTITLE17=Tupelo Blues
TTITLE18=How Long Blues
TTITLE19=Lou Della
TTITLE20=Wrong Doin' Woman
TTITLE21=Maudie
TTITLE22=Wobblin' Baby
TTITLE23=She's Long, She's Tall, She Weeps Like A Willow Tree
TTITLE24=Church Bell Tone
EXTD=
EXTT0=
EXTT1=
EXTT2=
EXTT3=
EXTT4=
EXTT5=
EXTT6=
EXTT7=
EXTT8=
EXTT9=
EXTT10=
EXTT11=
EXTT12=
EXTT13=
EXTT14=
EXTT15=
EXTT16=
EXTT17=
EXTT18=
EXTT19=
EXTT20=
EXTT21=
EXTT22=
EXTT23=
EXTT24=
PLAYORDER=
